<svg width="1280" height="2981" viewBox="0 0 1280 2981" fill="none" xmlns="http://www.w3.org/2000/svg">
<rect width="1280" height="2981" fill="white"/>
<path opacity="0.2" d="M498.788 1557.24C485.558 1520.86 505.031 1485.27 538.23 1487.64C595.094 1491.7 622.431 1556.75 667.596 1576.53C692.969 1587.64 721.313 1604.68 730.454 1632.65C737.401 1653.92 734.23 1681.8 706.144 1696.5C678.057 1711.21 659.11 1701.4 640.923 1731.71C627.23 1754.52 620.289 1762.27 606.209 1762.49C575.714 1762.97 567.005 1702.61 564.232 1679.36C558.491 1631.25 514.66 1600.91 498.788 1557.24Z" fill="#2F80ED"/>
<path opacity="0.2" d="M678.975 1232.13C696.644 1230.05 702.319 1227.86 714.568 1218.37C732.755 1204.28 759.888 1204.21 767.647 1231.17C773.613 1251.9 767.86 1277.61 754.62 1289.41C732.325 1309.26 691.062 1312.81 665.45 1297.49C643.369 1284.29 636.274 1258.88 650.042 1242.33C654.711 1236.71 662.051 1234.13 678.975 1232.13Z" fill="#F2994A"/>
<path opacity="0.2" d="M342.241 1148.78C335.501 1121.71 339.085 1108.95 356.872 1096.68C393.971 1071.09 451.322 1102.49 489.159 1115.04C518.382 1124.73 552.067 1139.24 553.48 1174.83C555.078 1214.88 509.938 1248.54 473.179 1234.65C446.818 1224.69 438.771 1226.74 417.511 1248.84C393.889 1273.4 377.948 1277.41 359.022 1263.57C344.07 1252.64 340.296 1234.65 343.072 1217.32C349.368 1177.99 349.362 1177.36 342.241 1148.78Z" fill="#50B0A1"/>
<path opacity="0.2" d="M676.973 375.61C605.698 378.357 586.146 331.608 526.096 320.663C462.147 309.001 433.284 338.014 426.45 361.736C421.181 380.022 410.108 387.959 380.923 393.043C360.121 395.898 341.689 403.985 346.517 426.168C351.345 448.35 341.559 461.595 326.992 469.53C312.424 477.466 298.833 488.733 294.053 503.41C285.956 528.256 302.415 554.28 332.75 565.818C366.838 578.508 385.145 592.399 382.75 621.211C382.152 628.412 386.169 666.723 434.906 655.142C447.216 652.218 498.137 632.494 529.038 669.101C536.732 678.216 555.785 687.185 573.195 690.364C619.884 698.875 667.618 673.127 672.358 637.674C677.5 611.441 683.879 599.141 721.786 608.303C759.293 617.369 781.738 578.315 760.752 558.279C731.625 535.699 766.381 495.089 777.418 461.204C792.505 414.887 739.187 370.566 676.973 375.61Z" fill="#F2C94C"/>
<path opacity="0.2" d="M255.624 572.595C260.377 543.542 282.125 487.45 258.417 463.356C238.577 443.194 182.999 504.583 168.771 587.866C153.888 762.955 208.46 827.157 261.698 881.262C314.936 935.367 365.313 931.683 382.252 915.015C399.192 898.346 407.264 858.329 320.67 770.327C234.079 682.325 250.872 601.649 255.624 572.595Z" fill="#F8B3B8"/>
<path opacity="0.2" d="M323.968 2745.96C321.723 2745.96 319.903 2747.77 319.903 2750H291C291 2731.89 305.76 2717.21 323.968 2717.21H384.032C386.277 2717.21 388.097 2715.4 388.097 2713.17C388.097 2710.93 386.277 2709.12 384.032 2709.12H323.968C305.76 2709.12 291 2694.44 291 2676.33C291 2658.22 305.76 2643.54 323.968 2643.54H384.032C386.277 2643.54 388.097 2641.73 388.097 2639.5C388.097 2637.27 386.277 2635.46 384.032 2635.46H323.968C305.76 2635.46 291 2620.78 291 2602.67C291 2584.56 305.76 2569.88 323.968 2569.88H384.032C386.277 2569.88 388.097 2568.07 388.097 2565.83C388.097 2563.6 386.277 2561.79 384.032 2561.79H323.968C305.76 2561.79 291 2547.11 291 2529H319.903C319.903 2531.23 321.723 2533.04 323.968 2533.04H384.032C402.24 2533.04 417 2547.72 417 2565.83C417 2583.94 402.24 2598.62 384.032 2598.62H323.968C321.723 2598.62 319.903 2600.43 319.903 2602.67C319.903 2604.9 321.723 2606.71 323.968 2606.71H384.032C402.24 2606.71 417 2621.39 417 2639.5C417 2657.61 402.24 2672.29 384.032 2672.29H323.968C321.723 2672.29 319.903 2674.1 319.903 2676.33C319.903 2678.57 321.723 2680.38 323.968 2680.38H384.032C402.24 2680.38 417 2695.06 417 2713.17C417 2731.28 402.24 2745.96 384.032 2745.96H323.968Z" fill="#2F6AD8"/>
<path opacity="0.2" d="M323.968 2966.96C321.723 2966.96 319.903 2968.77 319.903 2971H291C291 2952.89 305.76 2938.21 323.968 2938.21H384.032C386.277 2938.21 388.097 2936.4 388.097 2934.17C388.097 2931.93 386.277 2930.12 384.032 2930.12H323.968C305.76 2930.12 291 2915.44 291 2897.33C291 2879.22 305.76 2864.54 323.968 2864.54H384.032C386.277 2864.54 388.097 2862.73 388.097 2860.5C388.097 2858.27 386.277 2856.46 384.032 2856.46H323.968C305.76 2856.46 291 2841.78 291 2823.67C291 2805.56 305.76 2790.88 323.968 2790.88H384.032C386.277 2790.88 388.097 2789.07 388.097 2786.83C388.097 2784.6 386.277 2782.79 384.032 2782.79H323.968C305.76 2782.79 291 2768.11 291 2750H319.903C319.903 2752.23 321.723 2754.04 323.968 2754.04H384.032C402.24 2754.04 417 2768.72 417 2786.83C417 2804.94 402.24 2819.62 384.032 2819.62H323.968C321.723 2819.62 319.903 2821.43 319.903 2823.67C319.903 2825.9 321.723 2827.71 323.968 2827.71H384.032C402.24 2827.71 417 2842.39 417 2860.5C417 2878.61 402.24 2893.29 384.032 2893.29H323.968C321.723 2893.29 319.903 2895.1 319.903 2897.33C319.903 2899.57 321.723 2901.38 323.968 2901.38H384.032C402.24 2901.38 417 2916.06 417 2934.17C417 2952.28 402.24 2966.96 384.032 2966.96H323.968Z" fill="#2F6AD8"/>
<path opacity="0.2" fill-rule="evenodd" clip-rule="evenodd" d="M860 692L830 662V722L860 692ZM890 692L860 662V692V722L890 692ZM920 692L890 662V692V722L920 692ZM920 692V662L950 692L920 722V692Z" fill="#333333"/>
<path opacity="0.2" d="M368 1663L368.013 1729.93L393.64 1668.1L368.037 1729.94L415.376 1682.62L368.056 1729.96L429.9 1704.36L368.066 1729.99L435 1730L368.066 1730.01L429.9 1755.64L368.056 1730.04L415.376 1777.38L368.037 1730.06L393.64 1791.9L368.013 1730.07L368 1797L367.987 1730.07L342.36 1791.9L367.963 1730.06L320.624 1777.38L367.944 1730.04L306.1 1755.64L367.934 1730.01L301 1730L367.934 1729.99L306.1 1704.36L367.944 1729.96L320.624 1682.62L367.963 1729.94L342.36 1668.1L367.987 1729.93L368 1663Z" fill="#F0C3D2" stroke="#4F4F4F" stroke-width="4"/>
<path opacity="0.2" d="M1017 739L1017.01 805.934L1042.64 744.1L1017.04 805.944L1064.38 758.624L1017.06 805.963L1078.9 780.36L1017.07 805.987L1084 806L1017.07 806.013L1078.9 831.64L1017.06 806.037L1064.38 853.376L1017.04 806.056L1042.64 867.9L1017.01 806.066L1017 873L1016.99 806.066L991.36 867.9L1016.96 806.056L969.624 853.376L1016.94 806.037L955.1 831.64L1016.93 806.013L950 806L1016.93 805.987L955.1 780.36L1016.94 805.963L969.624 758.624L1016.96 805.944L991.36 744.1L1016.99 805.934L1017 739Z" fill="#F0C3D2" stroke="#4F4F4F" stroke-width="4"/>
<path opacity="0.2" d="M341.432 1309.46C342.096 1309.65 341.97 1310.98 340.737 1311.21C339.603 1311.52 337.755 1310.24 337.94 1308.07C337.971 1305.97 340.434 1303.64 343.516 1304.2C346.539 1304.57 349.391 1308.2 348.416 1312.22C347.7 1316.21 342.88 1319.58 337.958 1318.22C333.046 1317.17 329.191 1311.17 330.955 1305.3C332.353 1299.43 339.533 1295.04 346.294 1297.18C353.085 1298.92 357.969 1307.27 355.4 1314.99C353.302 1322.77 343.791 1328.17 335.18 1325.23C326.487 1322.81 320.625 1312.12 323.971 1302.54C326.768 1292.89 338.607 1286.43 349.073 1290.17C359.654 1293.29 366.523 1306.32 362.384 1317.76C358.903 1329.31 344.709 1336.78 332.401 1332.25C319.941 1328.44 312.046 1313.05 316.987 1299.77C321.16 1286.32 337.697 1277.84 351.852 1283.16C366.202 1287.64 375.098 1305.39 369.369 1320.53C364.506 1335.86 345.618 1345.38 329.622 1339.26C313.388 1334.08 303.479 1313.99 310.002 1297C315.563 1279.76 336.786 1269.25 354.63 1276.15C372.741 1282.02 383.684 1304.44 376.353 1323.29C370.109 1342.43 346.53 1353.95 326.844 1346.27C306.85 1339.7 294.895 1314.94 303.018 1294.23C309.952 1273.21 335.879 1260.66 357.409 1269.13C379.295 1276.37 392.246 1303.52 383.337 1326.06C375.71 1348.98 347.439 1362.55 324.065 1353.28C300.299 1345.35 286.318 1315.87 296.034 1291.47C304.343 1266.65 334.972 1252.07 360.188 1262.12C385.853 1270.75 400.812 1302.57 390.321 1328.83C381.307 1355.53 348.36 1371.16 321.286 1360.3C293.729 1350.99 277.768 1316.81 289.05 1288.7C298.759 1260.11 334.047 1243.46 362.967 1255.11C392.404 1265.1 409.388 1301.65 397.305 1331.6C386.91 1362.09 349.271 1379.74 318.508 1367.31C287.185 1356.62 269.186 1317.74 282.066 1285.93C293.151 1253.55 333.139 1234.86 365.745 1248.1C398.957 1259.46 417.958 1300.7 404.289 1334.36C392.506 1368.65 350.186 1388.33 315.729 1374.32C280.643 1362.26 260.604 1318.69 275.081 1283.16C287.545 1246.97 332.226 1226.29 368.524 1241.08C405.498 1253.84 426.54 1299.75 411.274 1337.13C398.12 1375.21 351.088 1396.93 312.95 1381.33C274.087 1367.9 252.04 1319.63 268.097 1280.4C281.946 1240.43 331.317 1217.69 371.303 1234.07C412.045 1248.19 435.116 1298.82 418.258 1339.9C403.73 1381.77 351.994 1405.52 310.171 1388.35C267.529 1373.53 243.476 1320.57 261.113 1277.63C276.343 1233.89 330.4 1209.08 374.081 1227.06C418.614 1242.56 443.67 1297.88 425.242 1342.67C409.315 1388.31 352.92 1414.12 307.393 1395.36C260.979 1379.18 234.899 1321.5 254.129 1274.86C270.738 1227.32 329.489 1200.49 376.86 1220.05" stroke="#333333" stroke-width="3" stroke-linecap="round"/>
<path opacity="0.2" fill-rule="evenodd" clip-rule="evenodd" d="M966.996 1830.5C966.996 1830.5 967.642 1805.45 952.594 1790.41C937.547 1775.36 912.504 1776 912.504 1776C912.504 1776 912.5 1776.13 912.5 1776.38C912.5 1776.27 912.499 1776.19 912.498 1776.13C912.497 1776.05 912.496 1776 912.496 1776C912.496 1776 887.453 1775.36 872.405 1790.41C857.358 1805.45 858.004 1830.5 858.004 1830.5C858.004 1830.5 883.047 1831.14 898.094 1816.09C911.849 1802.34 912.491 1780.24 912.5 1776.54C912.509 1780.24 913.152 1802.34 926.906 1816.09C941.953 1831.14 966.996 1830.5 966.996 1830.5ZM872.405 1870.59C857.358 1855.55 858.004 1830.5 858.004 1830.5C858.004 1830.5 883.047 1829.86 898.094 1844.91C911.849 1858.66 912.491 1880.76 912.5 1884.46C912.509 1880.76 913.152 1858.66 926.906 1844.91C941.953 1829.86 966.996 1830.5 966.996 1830.5C966.996 1830.5 967.642 1855.55 952.594 1870.59C937.547 1885.64 912.504 1885 912.504 1885C912.504 1885 912.5 1884.87 912.5 1884.62C912.499 1884.87 912.496 1885 912.496 1885C912.496 1885 887.453 1885.64 872.405 1870.59Z" fill="#F2C94C"/>
<path opacity="0.2" d="M847.431 2323.52C874.567 2312.38 888.4 2314.17 903.892 2330.83C936.207 2365.58 912.313 2430.1 905.045 2471.43C899.431 2503.34 889.492 2540.64 852.664 2547.53C811.223 2555.29 769.283 2513.39 778.104 2472.99C784.434 2444.01 781.067 2435.94 754.811 2417.16C725.639 2396.29 719.02 2380.3 730.527 2358.47C739.611 2341.24 757.755 2334.57 776.22 2334.82C818.116 2335.39 818.768 2335.29 847.431 2323.52Z" fill="#50B0A1"/>
<path opacity="0.2" d="M396.5 2166.4L404.384 2219.79L427.684 2171.09L419.452 2224.42L456.097 2184.75L432.48 2233.29L479.215 2206.16L442.311 2245.59L494.983 2233.41L448.072 2260.24L502 2264.1L449.25 2275.94L499.643 2295.49L445.742 2291.28L488.122 2324.79L437.858 2304.91L468.46 2349.39L426.299 2315.61L442.403 2367.12L412.092 2322.44L412.269 2376.4L396.5 2324.79L380.732 2376.4L380.908 2322.44L350.597 2367.12L366.702 2315.61L324.541 2349.39L355.143 2304.91L304.878 2324.79L347.259 2291.28L293.357 2295.49L343.75 2275.94L291 2264.1L344.928 2260.24L298.017 2233.41L350.689 2245.59L313.786 2206.16L360.52 2233.29L336.903 2184.75L373.549 2224.42L365.316 2171.09L388.616 2219.79L396.5 2166.4Z" fill="#F0C3D2"/>
<path opacity="0.2" fill-rule="evenodd" clip-rule="evenodd" d="M756.5 2030.86C728.999 2030.86 706.705 2053.31 706.705 2081C706.705 2108.69 728.999 2131.14 756.5 2131.14C784.001 2131.14 806.295 2108.69 806.295 2081C806.295 2053.31 784.001 2030.86 756.5 2030.86ZM685 2081C685 2041.24 717.012 2009 756.5 2009C795.988 2009 828 2041.24 828 2081C828 2120.76 795.988 2153 756.5 2153C717.012 2153 685 2120.76 685 2081Z" fill="#E55933"/>
<path opacity="0.2" d="M369.626 2107.61C370.753 2109.98 366.703 2113.01 362.937 2110.1C359.145 2107.7 358.13 2099.23 364.66 2094.25C370.607 2089.02 383.476 2090.04 389.691 2100.15C396.342 2109.63 393.308 2126.87 379.559 2134.33C366.55 2142.39 344.85 2137.39 336.184 2120.04C326.676 2103.52 333.773 2077.44 354.726 2067.54C374.821 2056.6 405.31 2065.66 416.445 2090.2C428.793 2113.79 417.682 2148.68 389.492 2161.04C362.318 2174.84 323.016 2161.74 309.43 2129.99C294.229 2099.33 309.379 2055.66 344.793 2040.82C379.026 2024.19 427.163 2041.28 443.199 2080.26C461.254 2117.98 442.055 2170.47 399.425 2187.76C358.109 2207.25 301.178 2186.11 282.676 2139.94C261.787 2095.15 284.998 2033.85 334.86 2014.1C383.244 1991.75 449.005 2016.93 469.953 2070.31C493.709 2122.17 466.429 2192.26 409.358 2214.48C353.906 2239.67 279.325 2210.49 255.922 2149.89C229.329 2090.97 260.629 2012.06 324.927 1987.39" stroke="#4F4F4F" stroke-width="3" stroke-linecap="round"/>
<path opacity="0.2" d="M903.894 1581C948.136 1581 984 1568.69 984 1553.5C984 1538.31 948.136 1526 903.894 1526C879.1 1526 859 1531.21 859 1537.64C859 1544.07 879.1 1549.28 903.894 1549.28C948.136 1549.28 984 1536.97 984 1521.78C984 1506.59 948.136 1494.28 903.894 1494.28C879.1 1494.28 859 1499.49 859 1505.92C859 1512.35 879.1 1517.56 903.894 1517.56C948.136 1517.56 984 1505.17 984 1489.89C984 1474.61 948.136 1462.22 903.894 1462.22C879.1 1462.22 859 1467.43 859 1473.86C859 1480.29 879.1 1485.5 903.894 1485.5C948.136 1485.5 984 1473.19 984 1458C984 1442.81 948.136 1430.5 903.894 1430.5C879.1 1430.5 859 1435.71 859 1442.14C859 1448.57 879.1 1453.78 903.894 1453.78C948.136 1453.78 984 1441.47 984 1426.28C984 1411.09 948.136 1398.78 903.894 1398.78C879.1 1398.78 859 1403.99 859 1410.42C859 1416.85 879.1 1422.06 903.894 1422.06C948.136 1422.06 984 1409.75 984 1394.56C984 1379.37 948.136 1367.06 903.894 1367.06C879.1 1367.06 859 1372.27 859 1378.7C859 1385.13 879.1 1390.34 903.894 1390.34C948.136 1390.34 984 1377.95 984 1362.67C984 1347.39 948.136 1335 903.894 1335" stroke="#4F4F4F" stroke-width="3" stroke-linecap="round"/>
<path opacity="0.2" fill-rule="evenodd" clip-rule="evenodd" d="M757 2706.75L715.25 2665L673.5 2706.75L631.75 2665L590 2706.75L631.75 2748.5L590 2790.25L631.75 2832L673.5 2790.25L715.25 2832L757 2790.25L715.25 2748.5L757 2706.75ZM715.25 2748.5L673.5 2790.25L631.75 2748.5L673.5 2706.75L715.25 2748.5Z" fill="#333333"/>
<path opacity="0.2" d="M537 785C547.254 785 547.254 827 557.507 827C567.761 827 567.761 785 578.014 785C588.268 785 588.268 827 598.498 827C608.752 827 608.752 785 618.981 785C629.235 785 629.235 827 639.464 827C649.718 827 649.718 785 659.971 785C670.225 785 670.225 827 680.479 827C690.732 827 690.732 785 700.985 785C711.239 785 711.239 827 721.493 827C731.746 827 731.746 785 742 785" stroke="#4F4F4F" stroke-width="3" stroke-miterlimit="10" stroke-linecap="round"/>
</svg>
