<svg width="425" height="920" viewBox="0 0 425 920" fill="none" xmlns="http://www.w3.org/2000/svg">
<g clip-path="url(#clip0_4_22)">
<rect width="425" height="920" fill="white"/>
<path opacity="0.2" d="M166.755 490.639C161.957 477.445 169.02 464.536 181.06 465.396C201.683 466.869 211.598 490.461 227.978 497.635C237.181 501.665 247.461 507.842 250.776 517.987C253.295 525.704 252.145 535.813 241.959 541.146C231.772 546.48 224.901 542.924 218.305 553.915C213.338 562.188 210.821 564.999 205.715 565.079C194.655 565.253 191.496 543.361 190.491 534.929C188.408 517.481 172.512 506.478 166.755 490.639Z" fill="#2F80ED"/>
<path opacity="0.2" d="M231.597 373.026C238.275 372.305 240.42 371.543 245.049 368.25C251.923 363.362 262.178 363.34 265.111 372.69C267.365 379.882 265.191 388.805 260.187 392.896C251.761 399.785 236.165 401.017 226.485 395.702C218.139 391.121 215.458 382.307 220.661 376.563C222.426 374.615 225.201 373.717 231.597 373.026Z" fill="#F2994A"/>
<path opacity="0.2" d="M109.979 342.497C107.535 332.682 108.835 328.052 115.286 323.603C128.741 314.322 149.541 325.709 163.264 330.261C173.862 333.777 186.079 339.038 186.592 351.946C187.171 366.472 170.8 378.678 157.468 373.643C147.908 370.03 144.989 370.774 137.278 378.789C128.711 387.694 122.929 389.15 116.066 384.13C110.643 380.167 109.274 373.643 110.281 367.356C112.564 353.093 112.562 352.865 109.979 342.497Z" fill="#50B0A1"/>
<path opacity="0.2" d="M231.209 75.9492C205.066 76.948 197.894 59.9482 175.867 55.9682C152.411 51.7278 141.823 62.2779 139.317 70.9038C137.384 77.5533 133.322 80.4396 122.617 82.2885C114.987 83.3267 108.226 86.2674 109.997 94.3337C111.768 102.4 108.178 107.216 102.835 110.102C97.4916 112.988 92.5063 117.085 90.753 122.422C87.7832 131.457 93.8204 140.92 104.947 145.115C117.451 149.73 124.166 154.782 123.288 165.258C123.068 167.877 124.541 181.808 142.419 177.597C146.934 176.534 165.612 169.361 176.946 182.673C179.769 185.988 186.757 189.249 193.143 190.405C210.269 193.5 227.778 184.137 229.517 171.245C231.402 161.706 233.742 157.233 247.647 160.565C261.405 163.861 269.638 149.66 261.94 142.374C251.256 134.163 264.005 119.396 268.053 107.074C273.587 90.2316 254.03 74.1149 231.209 75.9492Z" fill="#F2C94C"/>
<path opacity="0.2" d="M78.565 146.528C80.2887 135.991 88.1764 115.648 79.5781 106.909C72.3826 99.5967 52.2254 121.861 47.0653 152.066C41.6676 215.567 61.4594 238.852 80.7678 258.475C100.076 278.098 118.347 276.762 124.49 270.717C130.634 264.671 133.562 250.158 102.156 218.241C70.7509 186.325 76.8414 157.065 78.565 146.528Z" fill="#F8B3B8"/>
<path opacity="0.2" d="M102.036 880.518C101.216 880.518 100.552 881.182 100.552 882H90C90 875.362 95.3886 869.982 102.036 869.982H123.964C124.784 869.982 125.448 869.318 125.448 868.5C125.448 867.682 124.784 867.018 123.964 867.018H102.036C95.3886 867.018 90 861.638 90 855C90 848.362 95.3886 842.982 102.036 842.982H123.964C124.784 842.982 125.448 842.318 125.448 841.5C125.448 840.682 124.784 840.018 123.964 840.018H102.036C95.3886 840.018 90 834.638 90 828C90 821.362 95.3886 815.982 102.036 815.982H123.964C124.784 815.982 125.448 815.318 125.448 814.5C125.448 813.682 124.784 813.018 123.964 813.018H102.036C95.3886 813.018 90 807.637 90 801H100.552C100.552 801.818 101.216 802.482 102.036 802.482H123.964C130.611 802.482 136 807.862 136 814.5C136 821.138 130.611 826.518 123.964 826.518H102.036C101.216 826.518 100.552 827.182 100.552 828C100.552 828.818 101.216 829.482 102.036 829.482H123.964C130.611 829.482 136 834.863 136 841.5C136 848.137 130.611 853.518 123.964 853.518H102.036C101.216 853.518 100.552 854.182 100.552 855C100.552 855.818 101.216 856.482 102.036 856.482H123.964C130.611 856.482 136 861.862 136 868.5C136 875.138 130.611 880.518 123.964 880.518H102.036Z" fill="#2F6AD8"/>
<path opacity="0.2" d="M102.036 960.537C101.216 960.537 100.552 961.192 100.552 962H90C90 955.444 95.3886 950.13 102.036 950.13H123.964C124.784 950.13 125.448 949.475 125.448 948.667C125.448 947.858 124.784 947.203 123.964 947.203H102.036C95.3886 947.203 90 941.889 90 935.333C90 928.778 95.3886 923.463 102.036 923.463H123.964C124.784 923.463 125.448 922.808 125.448 922C125.448 921.192 124.784 920.537 123.964 920.537H102.036C95.3886 920.537 90 915.222 90 908.667C90 902.111 95.3886 896.797 102.036 896.797H123.964C124.784 896.797 125.448 896.142 125.448 895.333C125.448 894.525 124.784 893.87 123.964 893.87H102.036C95.3886 893.87 90 888.555 90 882H100.552C100.552 882.808 101.216 883.463 102.036 883.463H123.964C130.611 883.463 136 888.778 136 895.333C136 901.889 130.611 907.203 123.964 907.203H102.036C101.216 907.203 100.552 907.858 100.552 908.667C100.552 909.475 101.216 910.13 102.036 910.13H123.964C130.611 910.13 136 915.445 136 922C136 928.555 130.611 933.87 123.964 933.87H102.036C101.216 933.87 100.552 934.525 100.552 935.333C100.552 936.142 101.216 936.797 102.036 936.797H123.964C130.611 936.797 136 942.111 136 948.667C136 955.222 130.611 960.537 123.964 960.537H102.036Z" fill="#2F6AD8"/>
<path opacity="0.2" fill-rule="evenodd" clip-rule="evenodd" d="M297.5 190.5L286 181V200L297.5 190.5ZM309 190.5L297.5 181V190.5V200L309 190.5ZM320.5 190.5L309 181V190.5V200L320.5 190.5ZM320.5 190.5V181L332 190.5L320.5 200V190.5Z" fill="#333333"/>
<path opacity="0.2" d="M119.5 529L119.505 552.976L128.493 530.827L119.513 552.98L136.117 536.029L119.52 552.987L141.211 543.816L119.523 552.995L143 553L119.523 553.005L141.211 562.184L119.52 553.013L136.117 569.971L119.513 553.02L128.493 575.173L119.505 553.024L119.5 577L119.495 553.024L110.507 575.173L119.487 553.02L102.883 569.971L119.48 553.013L97.7888 562.184L119.477 553.005L96 553L119.477 552.995L97.7888 543.816L119.48 552.987L102.883 536.029L119.487 552.98L110.507 530.827L119.495 552.976L119.5 529Z" fill="#F0C3D2" stroke="#4F4F4F" stroke-width="4"/>
<path opacity="0.2" d="M355.5 208L355.505 231.976L364.493 209.827L355.513 231.98L372.117 215.029L355.52 231.987L377.211 222.816L355.523 231.995L379 232L355.523 232.005L377.211 241.184L355.52 232.013L372.117 248.971L355.513 232.02L364.493 254.173L355.505 232.024L355.5 256L355.495 232.024L346.507 254.173L355.487 232.02L338.883 248.971L355.48 232.013L333.789 241.184L355.477 232.005L332 232L355.477 231.995L333.789 222.816L355.48 231.987L338.883 215.029L355.487 231.98L346.507 209.827L355.495 231.976L355.5 208Z" fill="#F0C3D2" stroke="#4F4F4F" stroke-width="4"/>
<path opacity="0.2" d="M109.686 400.772C109.926 400.844 109.881 401.325 109.434 401.408C109.022 401.523 108.352 401.055 108.419 400.27C108.43 399.508 109.324 398.663 110.441 398.865C111.538 398.999 112.572 400.316 112.219 401.776C111.959 403.22 110.211 404.444 108.426 403.951C106.644 403.569 105.246 401.395 105.886 399.267C106.393 397.134 108.997 395.543 111.449 396.322C113.912 396.953 115.683 399.981 114.752 402.78C113.991 405.602 110.541 407.559 107.418 406.495C104.265 405.614 102.139 401.738 103.353 398.263C104.367 394.763 108.661 392.421 112.457 393.778C116.295 394.909 118.786 399.636 117.285 403.783C116.022 407.973 110.874 410.681 106.41 409.038C101.891 407.657 99.0279 402.077 100.82 397.259C102.333 392.383 108.331 389.306 113.465 391.235C118.669 392.862 121.896 399.3 119.818 404.787C118.054 410.348 111.204 413.8 105.403 411.581C99.5146 409.704 95.9209 402.417 98.2867 396.255C100.303 390.004 108.001 386.192 114.472 388.692C121.041 390.824 125.01 398.954 122.351 405.791C120.086 412.731 111.534 416.91 104.395 414.124C97.1433 411.743 92.8076 402.761 95.7538 395.252C98.2687 387.626 107.672 383.074 115.48 386.148C123.418 388.774 128.115 398.619 124.884 406.794C122.118 415.106 111.864 420.03 103.387 416.668C94.7677 413.79 89.6968 403.099 93.2207 394.248C96.2342 385.248 107.343 379.959 116.488 383.605C125.796 386.733 131.222 398.277 127.417 407.798C124.148 417.482 112.198 423.15 102.379 419.211C92.3846 415.835 86.596 403.44 90.6877 393.244C94.209 382.875 107.007 376.837 117.496 381.062C128.172 384.686 134.332 397.94 129.95 408.802C126.179 419.863 112.529 426.264 101.371 421.754C90.0114 417.879 83.4836 403.779 88.1546 392.241C92.175 380.495 106.678 373.719 118.504 378.519C130.549 382.64 137.44 397.598 132.483 409.806C128.209 422.243 112.86 429.378 100.364 424.298C87.6387 419.922 80.3709 404.122 85.6216 391.237C90.1419 378.11 106.347 370.61 119.511 375.975C132.921 380.601 140.553 397.252 135.016 410.809C130.245 424.62 113.188 432.497 99.3559 426.841C85.2611 421.968 77.2649 404.462 83.0886 390.233C88.1113 375.737 106.017 367.491 120.519 373.432C135.296 378.553 143.663 396.915 137.549 411.813C132.28 426.998 113.516 435.612 98.3481 429.384C82.8827 424.011 74.1589 404.802 80.5555 389.229C86.0793 373.366 105.685 364.368 121.527 370.889C137.678 376.51 146.765 396.574 140.082 412.817C134.305 429.37 113.852 438.734 97.3404 431.927C80.5069 426.059 71.0482 405.14 78.0225 388.226C84.0464 370.984 105.354 361.253 122.535 368.346" stroke="#333333" stroke-width="3" stroke-linecap="round"/>
<path opacity="0.2" fill-rule="evenodd" clip-rule="evenodd" d="M336.998 548.999C336.998 548.999 337.242 539.809 331.581 534.286C325.921 528.764 316.502 529.001 316.502 529.001C316.502 529.001 316.5 529.049 316.5 529.139C316.5 529.101 316.5 529.07 316.499 529.048C316.499 529.017 316.498 529.001 316.498 529.001C316.498 529.001 307.079 528.764 301.419 534.286C295.759 539.809 296.002 548.999 296.002 548.999C296.002 548.999 305.421 549.236 311.081 543.714C316.255 538.666 316.497 530.555 316.5 529.197C316.503 530.555 316.745 538.666 321.919 543.714C327.579 549.236 336.998 548.999 336.998 548.999ZM301.419 563.714C295.759 558.191 296.002 549.001 296.002 549.001C296.002 549.001 305.421 548.764 311.081 554.286C316.255 559.334 316.497 567.445 316.5 568.803C316.503 567.445 316.745 559.334 321.919 554.286C327.579 548.764 336.998 549.001 336.998 549.001C336.998 549.001 337.242 558.191 331.581 563.714C325.921 569.236 316.502 568.999 316.502 568.999C316.502 568.999 316.5 568.951 316.5 568.861C316.5 568.951 316.498 568.999 316.498 568.999C316.498 568.999 307.079 569.236 301.419 563.714Z" fill="#F2C94C"/>
<path opacity="0.2" d="M293.201 727.553C303.043 723.513 308.06 724.162 313.678 730.205C325.398 742.808 316.732 766.208 314.097 781.195C312.06 792.771 308.456 806.297 295.099 808.796C280.069 811.611 264.858 796.415 268.057 781.761C270.353 771.253 269.132 768.326 259.609 761.514C249.03 753.945 246.629 748.144 250.802 740.23C254.097 733.978 260.677 731.559 267.374 731.651C282.569 731.859 282.806 731.822 293.201 727.553Z" fill="#50B0A1"/>
<path opacity="0.2" d="M129.5 671L132.452 690.066L141.176 672.675L138.093 691.723L151.814 677.553L142.971 694.889L160.469 685.198L146.652 699.283L166.373 694.933L148.809 704.515L169 705.892L149.25 710.12L168.118 717.102L147.936 715.599L163.804 727.566L144.985 720.467L156.442 736.354L140.657 724.29L146.686 742.687L135.338 726.728L135.404 746L129.5 727.566L123.596 746L123.662 726.728L112.314 742.687L118.343 724.29L102.558 736.354L114.016 720.467L95.1961 727.566L111.064 715.599L90.8824 717.102L109.75 710.12L90 705.892L110.191 704.515L92.6274 694.933L112.348 699.283L98.5311 685.198L116.029 694.889L107.186 677.553L120.907 691.723L117.825 672.675L126.548 690.066L129.5 671Z" fill="#F0C3D2"/>
<path opacity="0.2" fill-rule="evenodd" clip-rule="evenodd" d="M260.5 621.893C250.692 621.893 242.741 630 242.741 640C242.741 650 250.692 658.107 260.5 658.107C270.308 658.107 278.259 650 278.259 640C278.259 630 270.308 621.893 260.5 621.893ZM235 640C235 625.641 246.417 614 260.5 614C274.583 614 286 625.641 286 640C286 654.359 274.583 666 260.5 666C246.417 666 235 654.359 235 640Z" fill="#E55933"/>
<path opacity="0.2" d="M119.911 649.247C120.32 650.105 118.851 651.204 117.485 650.149C116.11 649.279 115.742 646.209 118.11 644.402C120.267 642.504 124.934 642.873 127.189 646.541C129.6 649.977 128.5 656.232 123.514 658.937C118.795 661.862 110.925 660.045 107.782 653.756C104.334 647.763 106.908 638.305 114.507 634.712C121.795 630.748 132.853 634.033 136.892 642.934C141.37 651.489 137.34 664.142 127.116 668.626C117.261 673.629 103.007 668.877 98.0794 657.364C92.5665 646.242 98.0608 630.404 110.905 625.023C123.32 618.992 140.779 625.192 146.595 639.326C153.143 653.006 146.18 672.046 130.719 678.315C115.734 685.385 95.0864 677.718 88.3764 660.971C80.8002 644.729 89.2184 622.496 107.302 615.333C124.85 607.227 148.701 616.359 156.298 635.719C164.913 654.526 155.02 679.947 134.321 688.005C114.21 697.142 87.1608 686.559 78.6733 664.579C69.0286 643.211 80.3804 614.592 103.7 605.644" stroke="#4F4F4F" stroke-width="3" stroke-linecap="round"/>
<path opacity="0.2" d="M313.239 499C330.228 499 344 494.495 344 488.938C344 483.381 330.228 478.877 313.239 478.877C303.718 478.877 296 480.783 296 483.136C296 485.488 303.718 487.395 313.239 487.395C330.228 487.395 344 482.89 344 477.333C344 471.776 330.228 467.271 313.239 467.271C303.718 467.271 296 469.178 296 471.531C296 473.883 303.718 475.79 313.239 475.79C330.228 475.79 344 471.258 344 465.667C344 460.076 330.228 455.543 313.239 455.543C303.718 455.543 296 457.45 296 459.803C296 462.155 303.718 464.062 313.239 464.062C330.228 464.062 344 459.557 344 454C344 448.443 330.228 443.938 313.239 443.938C303.718 443.938 296 445.845 296 448.197C296 450.55 303.718 452.457 313.239 452.457C330.228 452.457 344 447.952 344 442.395C344 436.838 330.228 432.333 313.239 432.333C303.718 432.333 296 434.24 296 436.592C296 438.945 303.718 440.852 313.239 440.852C330.228 440.852 344 436.347 344 430.79C344 425.233 330.228 420.728 313.239 420.728C303.718 420.728 296 422.635 296 424.988C296 427.34 303.718 429.247 313.239 429.247C330.228 429.247 344 424.715 344 419.124C344 413.533 330.228 409 313.239 409" stroke="#4F4F4F" stroke-width="3" stroke-linecap="round"/>
<path opacity="0.2" fill-rule="evenodd" clip-rule="evenodd" d="M262 867L246 852L230 867L214 852L198 867L214 882L198 897L214 912L230 897L246 912L262 897L246 882L262 867ZM246 882L230 897L214 882L230 867L246 882Z" fill="#333333"/>
<path opacity="0.2" d="M182 225C185.551 225 185.551 240 189.102 240C192.654 240 192.654 225 196.205 225C199.756 225 199.756 240 203.299 240C206.851 240 206.851 225 210.393 225C213.945 225 213.945 240 217.488 240C221.039 240 221.039 225 224.59 225C228.141 225 228.141 240 231.693 240C235.244 240 235.244 225 238.795 225C242.346 225 242.346 240 245.898 240C249.449 240 249.449 225 253 225" stroke="#4F4F4F" stroke-width="3" stroke-miterlimit="10" stroke-linecap="round"/>
</g>
<defs>
<clipPath id="clip0_4_22">
<rect width="425" height="920" fill="white"/>
</clipPath>
</defs>
</svg>
